<mxfile host="app.diagrams.net" agent="Mozilla/5.0 (Windows NT 10.0; Win64; x64) AppleWebKit/537.36 (KHTML, like Gecko) Chrome/128.0.0.0 Safari/537.36" version="24.7.14">
  <diagram name="Page-1" id="O7iQHJYizZ77AJl8Uvpn">
    <mxGraphModel dx="1050" dy="569" grid="1" gridSize="10" guides="1" tooltips="1" connect="1" arrows="1" fold="1" page="1" pageScale="1" pageWidth="850" pageHeight="1100" math="0" shadow="0">
      <root>
        <mxCell id="0" />
        <mxCell id="1" parent="0" />
        <mxCell id="upWrPeKJtq252G-oxAg7-1" style="edgeStyle=orthogonalEdgeStyle;rounded=0;orthogonalLoop=1;jettySize=auto;html=1;exitX=1;exitY=0.5;exitDx=0;exitDy=0;entryX=0;entryY=0.5;entryDx=0;entryDy=0;" edge="1" parent="1" source="upWrPeKJtq252G-oxAg7-3" target="upWrPeKJtq252G-oxAg7-13">
          <mxGeometry relative="1" as="geometry" />
        </mxCell>
        <mxCell id="upWrPeKJtq252G-oxAg7-2" style="edgeStyle=orthogonalEdgeStyle;rounded=0;orthogonalLoop=1;jettySize=auto;html=1;entryX=0;entryY=0.5;entryDx=0;entryDy=0;" edge="1" parent="1" source="upWrPeKJtq252G-oxAg7-3" target="upWrPeKJtq252G-oxAg7-15">
          <mxGeometry relative="1" as="geometry" />
        </mxCell>
        <mxCell id="upWrPeKJtq252G-oxAg7-3" value="" style="rounded=0;whiteSpace=wrap;html=1;fillColor=#dae8fc;strokeColor=#6c8ebf;" vertex="1" parent="1">
          <mxGeometry x="40" y="95" width="160" height="195" as="geometry" />
        </mxCell>
        <mxCell id="upWrPeKJtq252G-oxAg7-4" style="edgeStyle=orthogonalEdgeStyle;rounded=0;orthogonalLoop=1;jettySize=auto;html=1;exitX=1;exitY=0.5;exitDx=0;exitDy=0;entryX=0;entryY=0.5;entryDx=0;entryDy=0;" edge="1" parent="1" source="upWrPeKJtq252G-oxAg7-6" target="upWrPeKJtq252G-oxAg7-9">
          <mxGeometry relative="1" as="geometry" />
        </mxCell>
        <mxCell id="upWrPeKJtq252G-oxAg7-5" style="edgeStyle=orthogonalEdgeStyle;rounded=0;orthogonalLoop=1;jettySize=auto;html=1;entryX=0;entryY=0.5;entryDx=0;entryDy=0;" edge="1" parent="1" source="upWrPeKJtq252G-oxAg7-6" target="upWrPeKJtq252G-oxAg7-11">
          <mxGeometry relative="1" as="geometry" />
        </mxCell>
        <mxCell id="upWrPeKJtq252G-oxAg7-6" value="&lt;font style=&quot;font-size: 20px;&quot;&gt;Ground Truth&lt;/font&gt;" style="rounded=0;whiteSpace=wrap;html=1;fillColor=#dae8fc;strokeColor=#6c8ebf;" vertex="1" parent="1">
          <mxGeometry x="40" y="40" width="160" height="40" as="geometry" />
        </mxCell>
        <mxCell id="upWrPeKJtq252G-oxAg7-7" value="&lt;font style=&quot;font-size: 14px;&quot;&gt;variation 1&lt;/font&gt;" style="rounded=0;whiteSpace=wrap;html=1;fillColor=#fff2cc;strokeColor=#d6b656;" vertex="1" parent="1">
          <mxGeometry x="50" y="110" width="140" height="30" as="geometry" />
        </mxCell>
        <mxCell id="upWrPeKJtq252G-oxAg7-8" style="edgeStyle=orthogonalEdgeStyle;rounded=0;orthogonalLoop=1;jettySize=auto;html=1;exitX=1;exitY=0.5;exitDx=0;exitDy=0;entryX=0;entryY=0.5;entryDx=0;entryDy=0;" edge="1" parent="1" source="upWrPeKJtq252G-oxAg7-9" target="upWrPeKJtq252G-oxAg7-17">
          <mxGeometry relative="1" as="geometry">
            <Array as="points">
              <mxPoint x="330" y="60" />
              <mxPoint x="330" y="65" />
            </Array>
          </mxGeometry>
        </mxCell>
        <mxCell id="upWrPeKJtq252G-oxAg7-9" value="&lt;i style=&quot;font-size: 20px;&quot;&gt;s&lt;sub&gt;p&lt;/sub&gt;&lt;/i&gt;" style="rounded=0;whiteSpace=wrap;html=1;fillColor=#d5e8d4;strokeColor=#82b366;" vertex="1" parent="1">
          <mxGeometry x="240" y="40" width="60" height="40" as="geometry" />
        </mxCell>
        <mxCell id="upWrPeKJtq252G-oxAg7-10" style="edgeStyle=orthogonalEdgeStyle;rounded=0;orthogonalLoop=1;jettySize=auto;html=1;entryX=0;entryY=0.5;entryDx=0;entryDy=0;" edge="1" parent="1" source="upWrPeKJtq252G-oxAg7-11" target="upWrPeKJtq252G-oxAg7-19">
          <mxGeometry relative="1" as="geometry">
            <Array as="points">
              <mxPoint x="310" y="110" />
              <mxPoint x="310" y="265" />
            </Array>
          </mxGeometry>
        </mxCell>
        <mxCell id="upWrPeKJtq252G-oxAg7-11" value="&lt;i style=&quot;font-size: 20px;&quot;&gt;s&lt;sub&gt;d&lt;/sub&gt;&lt;/i&gt;" style="rounded=0;whiteSpace=wrap;html=1;fillColor=#d5e8d4;strokeColor=#82b366;" vertex="1" parent="1">
          <mxGeometry x="240" y="90" width="60" height="40" as="geometry" />
        </mxCell>
        <mxCell id="upWrPeKJtq252G-oxAg7-12" style="edgeStyle=orthogonalEdgeStyle;rounded=0;orthogonalLoop=1;jettySize=auto;html=1;exitX=1;exitY=0.5;exitDx=0;exitDy=0;entryX=0;entryY=0.5;entryDx=0;entryDy=0;" edge="1" parent="1" source="upWrPeKJtq252G-oxAg7-13" target="upWrPeKJtq252G-oxAg7-17">
          <mxGeometry relative="1" as="geometry">
            <Array as="points">
              <mxPoint x="330" y="220" />
              <mxPoint x="330" y="65" />
            </Array>
          </mxGeometry>
        </mxCell>
        <mxCell id="upWrPeKJtq252G-oxAg7-13" value="&lt;i style=&quot;font-size: 20px;&quot;&gt;p&lt;sub&gt;pi&lt;/sub&gt;&lt;/i&gt;" style="rounded=0;whiteSpace=wrap;html=1;fillColor=#e1d5e7;strokeColor=#9673a6;" vertex="1" parent="1">
          <mxGeometry x="240" y="200" width="60" height="40" as="geometry" />
        </mxCell>
        <mxCell id="upWrPeKJtq252G-oxAg7-14" style="edgeStyle=orthogonalEdgeStyle;rounded=0;orthogonalLoop=1;jettySize=auto;html=1;exitX=1;exitY=0.5;exitDx=0;exitDy=0;entryX=0;entryY=0.5;entryDx=0;entryDy=0;" edge="1" parent="1" source="upWrPeKJtq252G-oxAg7-15" target="upWrPeKJtq252G-oxAg7-19">
          <mxGeometry relative="1" as="geometry">
            <Array as="points">
              <mxPoint x="310" y="270" />
              <mxPoint x="310" y="265" />
            </Array>
          </mxGeometry>
        </mxCell>
        <mxCell id="upWrPeKJtq252G-oxAg7-15" value="&lt;i style=&quot;font-size: 20px;&quot;&gt;p&lt;sub&gt;di&lt;/sub&gt;&lt;/i&gt;" style="rounded=0;whiteSpace=wrap;html=1;fillColor=#e1d5e7;strokeColor=#9673a6;" vertex="1" parent="1">
          <mxGeometry x="240" y="250" width="60" height="40" as="geometry" />
        </mxCell>
        <mxCell id="upWrPeKJtq252G-oxAg7-16" style="edgeStyle=orthogonalEdgeStyle;rounded=0;orthogonalLoop=1;jettySize=auto;html=1;entryX=0;entryY=0.5;entryDx=0;entryDy=0;" edge="1" parent="1" source="upWrPeKJtq252G-oxAg7-17" target="upWrPeKJtq252G-oxAg7-28">
          <mxGeometry relative="1" as="geometry">
            <Array as="points">
              <mxPoint x="380" y="115" />
            </Array>
          </mxGeometry>
        </mxCell>
        <mxCell id="upWrPeKJtq252G-oxAg7-17" value="&lt;i style=&quot;font-size: 16px;&quot;&gt;DTW&lt;sub&gt;p&lt;/sub&gt;&lt;/i&gt;" style="rounded=0;whiteSpace=wrap;html=1;fillColor=#d5e8d4;strokeColor=#82b366;" vertex="1" parent="1">
          <mxGeometry x="350" y="40" width="60" height="50" as="geometry" />
        </mxCell>
        <mxCell id="upWrPeKJtq252G-oxAg7-18" style="edgeStyle=orthogonalEdgeStyle;rounded=0;orthogonalLoop=1;jettySize=auto;html=1;entryX=0;entryY=0.5;entryDx=0;entryDy=0;" edge="1" parent="1" source="upWrPeKJtq252G-oxAg7-19" target="upWrPeKJtq252G-oxAg7-30">
          <mxGeometry relative="1" as="geometry">
            <Array as="points">
              <mxPoint x="380" y="215" />
            </Array>
          </mxGeometry>
        </mxCell>
        <mxCell id="upWrPeKJtq252G-oxAg7-19" value="&lt;i style=&quot;font-size: 16px;&quot;&gt;DTW&lt;sub&gt;d&lt;/sub&gt;&lt;/i&gt;" style="rounded=0;whiteSpace=wrap;html=1;fillColor=#e1d5e7;strokeColor=#9673a6;" vertex="1" parent="1">
          <mxGeometry x="350" y="240" width="60" height="50" as="geometry" />
        </mxCell>
        <mxCell id="upWrPeKJtq252G-oxAg7-20" style="edgeStyle=orthogonalEdgeStyle;rounded=0;orthogonalLoop=1;jettySize=auto;html=1;entryX=1;entryY=0.5;entryDx=0;entryDy=0;" edge="1" parent="1" source="upWrPeKJtq252G-oxAg7-21" target="upWrPeKJtq252G-oxAg7-28">
          <mxGeometry relative="1" as="geometry" />
        </mxCell>
        <mxCell id="upWrPeKJtq252G-oxAg7-21" value="&lt;i style=&quot;font-size: 16px;&quot;&gt;w&lt;sub&gt;p&lt;/sub&gt;&lt;/i&gt;" style="rounded=0;whiteSpace=wrap;html=1;fillColor=#d5e8d4;strokeColor=#82b366;" vertex="1" parent="1">
          <mxGeometry x="420" y="40" width="50" height="50" as="geometry" />
        </mxCell>
        <mxCell id="upWrPeKJtq252G-oxAg7-22" style="edgeStyle=orthogonalEdgeStyle;rounded=0;orthogonalLoop=1;jettySize=auto;html=1;entryX=1;entryY=0.5;entryDx=0;entryDy=0;" edge="1" parent="1" source="upWrPeKJtq252G-oxAg7-23" target="upWrPeKJtq252G-oxAg7-30">
          <mxGeometry relative="1" as="geometry" />
        </mxCell>
        <mxCell id="upWrPeKJtq252G-oxAg7-23" value="&lt;i style=&quot;font-size: 16px;&quot;&gt;w&lt;span style=&quot;&quot;&gt;&lt;sub&gt;d&lt;/sub&gt;&lt;/span&gt;&lt;/i&gt;" style="rounded=0;whiteSpace=wrap;html=1;fillColor=#e1d5e7;strokeColor=#9673a6;" vertex="1" parent="1">
          <mxGeometry x="420" y="240" width="50" height="50" as="geometry" />
        </mxCell>
        <mxCell id="upWrPeKJtq252G-oxAg7-24" value="&lt;font style=&quot;font-size: 14px;&quot;&gt;variation 2&lt;/font&gt;" style="rounded=0;whiteSpace=wrap;html=1;fillColor=#fff2cc;strokeColor=#d6b656;" vertex="1" parent="1">
          <mxGeometry x="50" y="150" width="140" height="30" as="geometry" />
        </mxCell>
        <mxCell id="upWrPeKJtq252G-oxAg7-25" value="&lt;font style=&quot;font-size: 14px;&quot;&gt;variation 9&lt;/font&gt;" style="rounded=0;whiteSpace=wrap;html=1;fillColor=#fff2cc;strokeColor=#d6b656;" vertex="1" parent="1">
          <mxGeometry x="50" y="250" width="140" height="30" as="geometry" />
        </mxCell>
        <mxCell id="upWrPeKJtq252G-oxAg7-26" value="" style="endArrow=none;dashed=1;html=1;dashPattern=1 3;strokeWidth=2;rounded=0;" edge="1" parent="1">
          <mxGeometry width="50" height="50" relative="1" as="geometry">
            <mxPoint x="119.66" y="240" as="sourcePoint" />
            <mxPoint x="119.66" y="190" as="targetPoint" />
          </mxGeometry>
        </mxCell>
        <mxCell id="upWrPeKJtq252G-oxAg7-27" style="edgeStyle=orthogonalEdgeStyle;rounded=0;orthogonalLoop=1;jettySize=auto;html=1;exitX=0.5;exitY=1;exitDx=0;exitDy=0;entryX=0.5;entryY=0;entryDx=0;entryDy=0;" edge="1" parent="1" source="upWrPeKJtq252G-oxAg7-28" target="upWrPeKJtq252G-oxAg7-32">
          <mxGeometry relative="1" as="geometry">
            <Array as="points">
              <mxPoint x="410" y="140" />
              <mxPoint x="360" y="140" />
            </Array>
          </mxGeometry>
        </mxCell>
        <mxCell id="upWrPeKJtq252G-oxAg7-28" value="" style="shape=sumEllipse;perimeter=ellipsePerimeter;whiteSpace=wrap;html=1;backgroundOutline=1;" vertex="1" parent="1">
          <mxGeometry x="395" y="100" width="30" height="30" as="geometry" />
        </mxCell>
        <mxCell id="upWrPeKJtq252G-oxAg7-29" style="edgeStyle=orthogonalEdgeStyle;rounded=0;orthogonalLoop=1;jettySize=auto;html=1;entryX=0.5;entryY=1;entryDx=0;entryDy=0;" edge="1" parent="1" source="upWrPeKJtq252G-oxAg7-30" target="upWrPeKJtq252G-oxAg7-32">
          <mxGeometry relative="1" as="geometry">
            <Array as="points">
              <mxPoint x="410" y="190" />
              <mxPoint x="360" y="190" />
            </Array>
          </mxGeometry>
        </mxCell>
        <mxCell id="upWrPeKJtq252G-oxAg7-30" value="" style="shape=sumEllipse;perimeter=ellipsePerimeter;whiteSpace=wrap;html=1;backgroundOutline=1;" vertex="1" parent="1">
          <mxGeometry x="395" y="200" width="30" height="30" as="geometry" />
        </mxCell>
        <mxCell id="upWrPeKJtq252G-oxAg7-31" style="edgeStyle=orthogonalEdgeStyle;rounded=0;orthogonalLoop=1;jettySize=auto;html=1;entryX=0;entryY=0.5;entryDx=0;entryDy=0;" edge="1" parent="1" source="upWrPeKJtq252G-oxAg7-32" target="upWrPeKJtq252G-oxAg7-33">
          <mxGeometry relative="1" as="geometry" />
        </mxCell>
        <mxCell id="upWrPeKJtq252G-oxAg7-32" value="" style="shape=orEllipse;perimeter=ellipsePerimeter;whiteSpace=wrap;html=1;backgroundOutline=1;" vertex="1" parent="1">
          <mxGeometry x="350" y="155" width="20" height="20" as="geometry" />
        </mxCell>
        <mxCell id="upWrPeKJtq252G-oxAg7-33" value="&lt;font style=&quot;font-size: 20px;&quot;&gt;DTW&lt;/font&gt;" style="rounded=0;whiteSpace=wrap;html=1;fillColor=#f8cecc;strokeColor=#b85450;" vertex="1" parent="1">
          <mxGeometry x="395" y="145" width="75" height="40" as="geometry" />
        </mxCell>
      </root>
    </mxGraphModel>
  </diagram>
</mxfile>
